<?xml version="1.0" encoding="UTF-8"?>
<svg id="Layer_1" xmlns="http://www.w3.org/2000/svg" viewBox="0 0 2231.29 1000">
  <defs>
    <style>
      .cls-1 {
        fill: #78d2f0;
      }

      .cls-2 {
        fill: #e6cd37;
      }

      .cls-3 {
        fill: #0f3c41;
      }
    </style>
  </defs>
  <g>
    <path class="cls-1" d="M682.53,317.33c-82.14,27.34-193.16,31.23-309.79,103.5-18.58,11.51-34.68,26.74-47.02,44.7-16.36-17.2-26.43-40.47-26.43-66.09,0-32.57,16.9-60.44,41.08-78.66,56.34-42.46,181.13-9.82,219.07-3.49,74.28,12.38,120.28.77,123.09.04Z"/>
    <path class="cls-3" d="M682.67,317.29c-82.15,68.46-177.99,177.99-287.53,177.99-27.31,0-51.96-11.42-69.42-29.75,12.34-17.96,28.44-33.19,47.02-44.7,116.63-72.26,227.65-76.15,309.79-103.5.04-.01.1-.03.14-.04Z"/>
    <path class="cls-2" d="M682.65,317.31c-68.47,82.15-177.98,177.98-177.98,287.5,0,27.31,11.42,51.96,29.75,69.42-24.1,16.58-53.1,26.38-84.6,26.38-41.54,0-79.18-16.84-106.43-44.06-27.22-27.25-44.06-64.89-44.06-106.43,0-31.5,9.8-60.5,26.38-84.6,17.46,18.33,42.1,29.75,69.42,29.75,109.53,0,205.38-109.53,287.53-177.99,0,0,0,.01-.02.03Z"/>
    <path class="cls-3" d="M682.67,317.29s-.04.13-.07.24c-27.31,82.12-31.23,193.11-103.47,309.68-11.51,18.58-26.74,34.68-44.7,47.02-18.33-17.46-29.75-42.1-29.75-69.42,0-109.52,109.52-205.37,177.99-287.52Z"/>
    <path class="cls-1" d="M679.17,659.58c-18.22,24.18-46.09,41.08-78.66,41.08-25.62,0-48.89-10.06-66.09-26.42,17.96-12.34,33.19-28.44,44.7-47.02,72.24-116.57,76.15-227.56,103.47-309.68-.96,3.68-12.17,49.5.07,122.98,6.33,37.94,38.97,162.73-3.49,219.07Z"/>
  </g>
  <g>
    <path class="cls-3" d="M927,512.7c0,6.87-1.03,11.33-1.03,11.33l-37.41,2.4c.34-1.03.69-4.12.69-7.55,0-15.79-10.64-28.49-30.55-28.49-24.37,0-40.5,19.22-40.5,48.05s15.79,49.43,45.65,49.43c26.77,0,40.85-13.39,46-19.56l21.28,26.09c-11.67,14.76-35.7,27.8-69.68,27.8-53.2,0-85.81-33.99-85.81-82.38s33.98-83.76,83.41-83.76c42.22,0,67.96,25.06,67.96,56.64Z"/>
    <path class="cls-3" d="M1110.97,539.47c0,48.74-33.64,82.73-84.78,82.73s-84.78-33.99-84.78-82.73,33.98-83.41,84.78-83.41,84.78,34.67,84.78,83.41ZM1068.41,539.47c0-28.83-16.48-49.08-42.22-49.08s-42.22,20.25-42.22,49.08,16.48,48.4,42.22,48.4,42.22-19.91,42.22-48.4Z"/>
    <path class="cls-3" d="M1394.15,521.28v98.86h-41.88v-93.37c0-20.94-10.64-34.33-31.24-34.33-25.4,0-36.73,23.69-36.73,43.59v84.1h-41.88v-93.37c0-20.94-10.64-34.33-31.24-34.33-25.4,0-36.39,23.69-36.39,43.59v84.1h-41.88v-162.02l32.27-1.37c3.09,10.64,5.15,28.15,5.15,35.35h.34c7.89-19.91,24.03-35.7,52.52-35.7s48.4,14.42,56.64,37.07c7.55-20.6,24.03-37.07,53.2-37.07,39.13,0,61.1,27.12,61.1,64.88Z"/>
    <path class="cls-3" d="M1591.16,539.47c0,50.46-31.58,82.73-75.86,82.73-28.49,0-47.03-14.76-55.95-34.67h-.34c0,6.52-1.72,22.31-4.12,32.61h-31.58v-242.34h41.88v105.38c9.27-15.1,25.74-27.12,52.52-27.12,41.88,0,73.46,31.24,73.46,83.41ZM1548.6,539.47c0-29.52-15.79-48.4-41.53-48.4-27.46,0-41.88,23.69-41.88,43.59v9.27c0,20.94,14.76,43.25,43.25,43.25,24.37,0,40.16-18.88,40.16-47.71Z"/>
    <path class="cls-3" d="M1739.09,570.36l21.28,23c-12.36,16.14-36.04,28.84-68.65,28.84-53.89,0-86.5-33.99-86.5-82.73s32.27-83.41,82.04-83.41,74.49,32.61,74.49,76.2c0,10.3-1.72,16.82-1.72,16.82h-112.59c3.78,24.03,20.25,40.5,48.74,40.5,23.34,0,36.04-10.98,42.91-19.22ZM1647.45,525.4h74.83c-.34-21.28-13.73-36.73-35.01-36.73s-36.04,14.07-39.82,36.73Z"/>
    <path class="cls-3" d="M1909.34,570.36l21.28,23c-12.36,16.14-36.04,28.84-68.65,28.84-53.89,0-86.5-33.99-86.5-82.73s32.27-83.41,82.04-83.41,74.49,32.61,74.49,76.2c0,10.3-1.72,16.82-1.72,16.82h-112.59c3.78,24.03,20.25,40.5,48.74,40.5,23.34,0,36.04-10.98,42.91-19.22ZM1817.69,525.4h74.83c-.34-21.28-13.73-36.73-35.01-36.73s-36.04,14.07-39.82,36.73Z"/>
  </g>
</svg>