<?xml version="1.0" encoding="UTF-8"?>
<svg id="Layer_1" xmlns="http://www.w3.org/2000/svg" viewBox="0 0 500 500">
  <defs>
    <style>
      .cls-1 {
        fill: #78d2f0;
      }

      .cls-2 {
        fill: #e6cd37;
      }

      .cls-3 {
        fill: #0f3c41;
      }
    </style>
  </defs>
  <path class="cls-1" d="M477.47,22.41c-102.34,34.07-240.66,38.91-385.97,128.95-23.15,14.35-43.21,33.32-58.58,55.7C12.54,185.62,0,156.62,0,124.71,0,84.12,21.05,49.41,51.18,26.71c70.2-52.9,225.67-12.23,272.94-4.35,92.54,15.42,149.86.96,153.36.05Z"/>
  <path class="cls-3" d="M477.65,22.36c-102.35,85.29-221.77,221.76-358.24,221.76-34.03,0-64.74-14.23-86.49-37.07,15.37-22.38,35.43-41.35,58.58-55.7C236.81,61.32,375.14,56.47,477.47,22.41c.05-.02.12-.03.17-.05Z"/>
  <path class="cls-2" d="M477.63,22.39c-85.31,102.35-221.75,221.75-221.75,358.2,0,34.03,14.23,64.74,37.07,86.49-30.02,20.66-66.15,32.87-105.41,32.87-51.76,0-98.65-20.98-132.6-54.9C21.03,411.11.05,364.21.05,312.46c0-39.25,12.21-75.38,32.87-105.41,21.75,22.84,52.46,37.07,86.49,37.07,136.47,0,255.88-136.47,358.24-221.76,0,0,0,.01-.02.03Z"/>
  <path class="cls-3" d="M477.65,22.36c0,.05-.05.17-.09.3-34.03,102.32-38.91,240.6-128.91,385.83-14.35,23.15-33.32,43.21-55.7,58.58-22.84-21.75-37.07-52.46-37.07-86.49,0-136.45,136.46-255.88,221.77-358.23Z"/>
  <path class="cls-1" d="M473.29,448.82c-22.7,30.13-57.42,51.18-98,51.18-31.92,0-60.92-12.54-82.34-32.92,22.38-15.37,41.35-35.43,55.7-58.58,90-145.24,94.88-283.52,128.91-385.83-1.19,4.59-15.17,61.67.09,153.22,7.88,47.27,48.55,202.74-4.35,272.94Z"/>
</svg>